<?xml version="1.0" encoding="UTF-8"?>
<svg id="Camada_1" data-name="Camada 1" xmlns="http://www.w3.org/2000/svg" viewBox="0 0 5740.45458984375 5319.475341796875">
  <defs>
    <style>
      .cls-1 {
        fill: #1d1d1b;
      }
    </style>
  </defs>
  <polygon class="cls-1" points="5118.954727879616257 5315.975341796875 1385.77001953125 5315.975341796875 1385.77001953125 5308.975341796875 5106.033628313978625 5308.975341796875 5106.033628313978625 4844.049072265625 1385.77001953125 4844.049072265625 1385.77001953125 4837.049072265625 5118.954727879616257 4837.049072265625 5118.954727879616257 5315.975341796875"/>
  <rect class="cls-1" x="1382.27001953125" y="4840.549072265625" width="7" height="150.79345703125"/>
  <rect class="cls-1" x="1382.27001953125" y="5161.682373046875" width="7" height="150.79296875"/>
  <polygon class="cls-1" points="1385.27001953125 5315.975341796875 916.1357421875 5315.975341796875 916.1357421875 4379.085205078125 1299.20361328125 4379.085205078125 1299.20361328125 4386.085205078125 923.1357421875 4386.085205078125 923.1357421875 5308.975341796875 1385.27001953125 5308.975341796875 1385.27001953125 5315.975341796875"/>
  <rect class="cls-1" x="1743.205078125" y="4379.085205078125" width="457.96435546875" height="7"/>
  <polygon class="cls-1" points="3094.29541015625 4386.085205078125 2629.33154296875 4386.085205078125 2629.33154296875 3424.769775390625 2636.33154296875 3424.769775390625 2636.33154296875 4379.085205078125 3087.29541015625 4379.085205078125 3087.29541015625 4078.000244140625 3627.45458984375 4078.000244140625 3627.45458984375 2273.000244140625 1620.95458984375 2273.000244140625 1620.95458984375 2266.000244140625 3634.45458984375 2266.000244140625 3634.45458984375 4085.000244140625 3094.29541015625 4085.000244140625 3094.29541015625 4386.085205078125"/>
  <rect class="cls-1" x="1968.6875" y="3283.810791015625" width="7" height="1098.7744140625"/>
  <polygon class="cls-1" points="923.1357421875 4382.585205078125 916.1357421875 4382.585205078125 916.1357421875 4179.442626953125 0 4179.442626953125 0 2815.305419921875 1305.49609375 2815.305419921875 1305.49609375 3094.551513671875 1975.6875 3094.551513671875 1975.6875 3513.500244140625 1305.49609375 3513.500244140625 1305.49609375 4004.894775390625 1662.2236328125 4004.894775390625 1662.2236328125 4011.894775390625 1298.49609375 4011.894775390625 1298.49609375 3506.500244140625 1968.6875 3506.500244140625 1968.6875 3101.551513671875 1298.49609375 3101.551513671875 1298.49609375 2822.305419921875 7 2822.305419921875 7 4172.442626953125 923.1357421875 4172.442626953125 923.1357421875 4382.585205078125"/>
  <path class="cls-1" d="M821.45458984375,3765.277099609375h-474.8291015625v-573.6552734375h474.8291015625v573.6552734375ZM353.62548828125,3758.277099609375h460.8291015625v-559.6552734375h-460.8291015625v559.6552734375Z"/>
  <polygon class="cls-1" points="3094.29541015625 3654.459716796875 2642.37890625 3654.459716796875 2642.37890625 3647.459716796875 3087.29541015625 3647.459716796875 3087.29541015625 3101.551513671875 1972.1875 3101.551513671875 1972.1875 3094.551513671875 3094.29541015625 3094.551513671875 3094.29541015625 3654.459716796875"/>
  <polygon class="cls-1" points="4270.45458984375 4837.049072265625 4263.45458984375 4837.049072265625 4263.45458984375 3094.551513671875 5122.45458984375 3094.551513671875 5122.45458984375 4313.000244140625 4638.95458984375 4313.000244140625 4638.95458984375 4306.000244140625 5115.45458984375 4306.000244140625 5115.45458984375 3101.551513671875 4270.45458984375 3101.551513671875 4270.45458984375 4837.049072265625"/>
  <polygon class="cls-1" points="5740.45458984375 5319.475341796875 5118.95458984375 5319.475341796875 5118.95458984375 5312.475341796875 5733.45458984375 5312.475341796875 5733.45458984375 7 923.13525390625 7 923.13525390625 2818.805419921875 916.13525390625 2818.805419921875 916.13525390625 0 5740.45458984375 0 5740.45458984375 5319.475341796875"/>
  <polygon class="cls-1" points="5736.95458984375 1361.000244140625 4881.45458984375 1361.000244140625 4881.45458984375 677.000244140625 1548.95458984375 677.000244140625 1548.95458984375 670.000244140625 4888.45458984375 670.000244140625 4888.45458984375 1354.000244140625 5736.95458984375 1354.000244140625 5736.95458984375 1361.000244140625"/>
  <polygon class="cls-1" points="3646.45458984375 1817.000244140625 2676.95458984375 1817.000244140625 2676.95458984375 1810.000244140625 3639.45458984375 1810.000244140625 3639.45458984375 1361.000244140625 919.6357421875 1361.000244140625 919.6357421875 1354.000244140625 3646.45458984375 1354.000244140625 3646.45458984375 1817.000244140625"/>
  <rect class="cls-1" x="2445.45458984375" y="2713.500244140625" width="7" height="384.55126953125"/>
  <rect class="cls-1" x="4263.45458984375" y="673.500244140625" width="7" height="2424.55126953125"/>
  <rect class="cls-1" x="4266.95458984375" y="1978.000244140625" width="1470" height="7"/>
  <rect class="cls-1" x="5115.45458984375" y="2539.500244140625" width="7" height="558.55126953125"/>
  <rect class="cls-1" x="2049.45458984375" y="1357.500244140625" width="7" height="912"/>
  <rect class="cls-1" x="4884.95458984375" y="670.000244140625" width="408" height="7"/>
</svg>